<?xml version="1.0" standalone="no"?>
<!DOCTYPE svg PUBLIC "-//W3C//DTD SVG 20010904//EN"
 "http://www.w3.org/TR/2001/REC-SVG-20010904/DTD/svg10.dtd">
<svg version="1.0" xmlns="http://www.w3.org/2000/svg"
 width="512.000000pt" height="512.000000pt" viewBox="0 0 512.000000 512.000000"
 preserveAspectRatio="xMidYMid meet">
<metadata>
Created by potrace 1.16, written by Peter Selinger 2001-2019
</metadata>
<g transform="translate(0.000000,512.000000) scale(0.100000,-0.100000)"
fill="#000000" stroke="none">
<path d="M245 4007 c-90 -30 -171 -102 -216 -192 -21 -43 -24 -64 -24 -155 0
-96 2 -110 28 -160 24 -45 242 -268 1165 -1192 944 -945 1147 -1143 1197
-1170 57 -31 65 -33 165 -33 100 0 108 2 165 33 51 27 252 224 1201 1175 905
906 1145 1152 1165 1192 21 43 24 64 24 155 0 96 -3 110 -29 162 -35 69 -93
127 -166 165 -50 25 -65 28 -155 28 -175 0 -75 87 -1207 -1044 l-998 -996
-997 996 c-1121 1118 -1032 1041 -1193 1046 -50 1 -101 -3 -125 -10z"/>
</g>
</svg>
