<?xml version="1.0" standalone="no"?>
<!DOCTYPE svg PUBLIC "-//W3C//DTD SVG 20010904//EN"
 "http://www.w3.org/TR/2001/REC-SVG-20010904/DTD/svg10.dtd">
<svg version="1.0" xmlns="http://www.w3.org/2000/svg"
 width="512.000000pt" height="512.000000pt" viewBox="0 0 512.000000 512.000000"
 preserveAspectRatio="xMidYMid meet">
<metadata>
Created by potrace 1.16, written by Peter Selinger 2001-2019
</metadata>
<g transform="translate(0.000000,512.000000) scale(0.100000,-0.100000)"
fill="#000000" stroke="none">
<path d="M93 4334 c-62 -37 -93 -95 -93 -174 0 -80 31 -138 94 -175 l43 -25
2423 0 2423 0 43 25 c63 37 94 95 94 175 0 80 -31 138 -94 175 l-43 25 -2424
0 -2424 0 -42 -26z"/>
<path d="M93 2734 c-62 -37 -93 -95 -93 -174 0 -80 31 -138 94 -175 l43 -25
2423 0 2423 0 43 25 c63 37 94 95 94 175 0 80 -31 138 -94 175 l-43 25 -2424
0 -2424 0 -42 -26z"/>
<path d="M93 1134 c-62 -37 -93 -95 -93 -174 0 -80 31 -138 94 -175 l43 -25
2423 0 2423 0 43 25 c63 37 94 95 94 175 0 80 -31 138 -94 175 l-43 25 -2424
0 -2424 0 -42 -26z"/>
</g>
</svg>
