<svg width="0" height="0" class="hidden">
  <symbol xmlns="http://www.w3.org/2000/svg" viewBox="0 0 512 512" id="instagram">
    <path d="M305 256c0 27.063-21.938 49-49 49s-49-21.938-49-49 21.938-49 49-49 49 21.938 49 49zm0 0"></path>
    <path d="M370.594 169.305a45.546 45.546 0 00-10.996-16.903 45.514 45.514 0 00-16.903-10.996c-5.18-2.011-12.96-4.406-27.293-5.058-15.504-.707-20.152-.86-59.402-.86-39.254 0-43.902.149-59.402.856-14.332.656-22.118 3.05-27.293 5.062a45.483 45.483 0 00-16.903 10.996 45.572 45.572 0 00-11 16.903c-2.011 5.18-4.406 12.965-5.058 27.297-.707 15.5-.86 20.148-.86 59.402 0 39.25.153 43.898.86 59.402.652 14.332 3.047 22.114 5.058 27.293a45.563 45.563 0 0010.996 16.903 45.514 45.514 0 0016.903 10.996c5.18 2.015 12.965 4.41 27.297 5.062 15.5.707 20.144.856 59.398.856 39.258 0 43.906-.149 59.402-.856 14.332-.652 22.118-3.047 27.297-5.062a48.68 48.68 0 0027.899-27.899c2.011-5.18 4.406-12.96 5.062-27.293.707-15.504.856-20.152.856-59.402 0-39.254-.149-43.902-.856-59.402-.652-14.332-3.047-22.118-5.062-27.297zM256 331.485c-41.691 0-75.488-33.794-75.488-75.485s33.797-75.484 75.488-75.484c41.688 0 75.484 33.793 75.484 75.484S297.688 331.484 256 331.484zm78.469-136.313c-9.742 0-17.64-7.899-17.64-17.64s7.898-17.641 17.64-17.641 17.64 7.898 17.64 17.64c-.004 9.742-7.898 17.64-17.64 17.64zm0 0"></path>
    <path d="M256 0C114.637 0 0 114.637 0 256s114.637 256 256 256 256-114.637 256-256S397.363 0 256 0zm146.113 316.605c-.71 15.649-3.199 26.333-6.832 35.684a75.164 75.164 0 01-42.992 42.992c-9.348 3.633-20.035 6.117-35.68 6.832-15.675.715-20.683.887-60.605.887-39.926 0-44.93-.172-60.61-.887-15.644-.715-26.331-3.199-35.68-6.832a72.018 72.018 0 01-26.038-16.957 72.044 72.044 0 01-16.953-26.035c-3.633-9.348-6.121-20.035-6.832-35.68-.723-15.68-.891-20.687-.891-60.609s.168-44.93.887-60.605c.71-15.649 3.195-26.332 6.828-35.684a72.013 72.013 0 0116.96-26.035 72.003 72.003 0 0126.036-16.957c9.352-3.633 20.035-6.117 35.684-6.832C211.07 109.172 216.078 109 256 109s44.93.172 60.605.89c15.649.712 26.332 3.196 35.684 6.825a72.061 72.061 0 0126.04 16.96 72.027 72.027 0 0116.952 26.036c3.637 9.352 6.121 20.035 6.836 35.684.715 15.675.883 20.683.883 60.605s-.168 44.93-.887 60.605zm0 0"></path>
  </symbol>
  <symbol version="1.0" xmlns="http://www.w3.org/2000/svg" viewBox="0 0 512 512" id="menu">
    <path d="M9.3 78.6C3.1 82.3 0 88.1 0 96c0 8 3.1 13.8 9.4 17.5l4.3 2.5h484.6l4.3-2.5c6.3-3.7 9.4-9.5 9.4-17.5s-3.1-13.8-9.4-17.5l-4.3-2.5H13.5l-4.2 2.6zm0 160C3.1 242.3 0 248.1 0 256c0 8 3.1 13.8 9.4 17.5l4.3 2.5h484.6l4.3-2.5c6.3-3.7 9.4-9.5 9.4-17.5s-3.1-13.8-9.4-17.5l-4.3-2.5H13.5l-4.2 2.6zm0 160C3.1 402.3 0 408.1 0 416c0 8 3.1 13.8 9.4 17.5l4.3 2.5h484.6l4.3-2.5c6.3-3.7 9.4-9.5 9.4-17.5s-3.1-13.8-9.4-17.5l-4.3-2.5H13.5l-4.2 2.6z"></path>
  </symbol>
  <symbol xmlns="http://www.w3.org/2000/svg" viewBox="0 0 322 322" id="phone">
    <path d="M275.445 135.123c.387-45.398-38.279-87.016-86.192-92.771-.953-.113-1.991-.285-3.09-.467-2.372-.393-4.825-.797-7.3-.797-9.82 0-12.445 6.898-13.136 11.012-.672 4-.031 7.359 1.902 9.988 3.252 4.422 8.974 5.207 13.57 5.836 1.347.186 2.618.359 3.682.598 43.048 9.619 57.543 24.742 64.627 67.424.173 1.043.251 2.328.334 3.691.309 5.102.953 15.717 12.365 15.717h.001c.95 0 1.971-.082 3.034-.244 10.627-1.615 10.294-11.318 10.134-15.98-.045-1.313-.088-2.555.023-3.381.03-.208.045-.417.046-.626z"></path>
    <path d="M176.077 25.688c1.275.092 2.482.18 3.487.334 70.689 10.871 103.198 44.363 112.207 115.605.153 1.211.177 2.688.202 4.252.09 5.566.275 17.145 12.71 17.385l.386.004c3.9 0 7.002-1.176 9.221-3.498 3.871-4.049 3.601-10.064 3.383-14.898-.053-1.186-.104-2.303-.091-3.281.899-72.862-62.171-138.933-134.968-141.39-.302-.01-.59.006-.881.047a6.09 6.09 0 01-.862.047c-.726 0-1.619-.063-2.566-.127C177.16.09 175.862 0 174.546 0c-11.593 0-13.797 8.24-14.079 13.152-.65 11.352 10.332 12.151 15.61 12.536zM288.36 233.703a224.924 224.924 0 01-4.512-3.508c-7.718-6.211-15.929-11.936-23.87-17.473a1800.92 1800.92 0 01-4.938-3.449c-10.172-7.145-19.317-10.617-27.957-10.617-11.637 0-21.783 6.43-30.157 19.109-3.71 5.621-8.211 8.354-13.758 8.354-3.28 0-7.007-.936-11.076-2.783-32.833-14.889-56.278-37.717-69.685-67.85-6.481-14.564-4.38-24.084 7.026-31.832 6.477-4.396 18.533-12.58 17.679-28.252-.967-17.797-40.235-71.346-56.78-77.428-7.005-2.576-14.365-2.6-21.915-.06-19.02 6.394-32.669 17.623-39.475 32.471-6.577 14.347-6.28 31.193.859 48.717 20.638 50.666 49.654 94.84 86.245 131.293 35.816 35.684 79.837 64.914 130.839 86.875 4.597 1.978 9.419 3.057 12.94 3.844 1.2.27 2.236.5 2.991.707.415.113.843.174 1.272.178l.403.002h.002c23.988 0 52.791-21.92 61.637-46.91 7.75-21.882-6.4-32.698-17.77-41.388zM186.687 83.564c-4.107.104-12.654.316-15.653 9.021-1.403 4.068-1.235 7.6.5 10.498 2.546 4.252 7.424 5.555 11.861 6.27 16.091 2.582 24.355 11.48 26.008 28 .768 7.703 5.955 13.082 12.615 13.082h.001c.492 0 .995-.029 1.496-.09 8.01-.953 11.893-6.838 11.542-17.49.128-11.117-5.69-23.738-15.585-33.791-9.929-10.084-21.898-15.763-32.785-15.5z"></path>
  </symbol>
  <symbol xmlns="http://www.w3.org/2000/svg" viewBox="0 0 512 512" id="service">
    <path d="M385.381 102.82c4.143 0 7.5-3.357 7.5-7.5V85.238c0-4.143-3.357-7.5-7.5-7.5s-7.5 3.357-7.5 7.5V95.32a7.5 7.5 0 007.5 7.5zm81.599 66.598c-4.143 0-7.5 3.357-7.5 7.5s3.357 7.5 7.5 7.5h10.081c4.143 0 7.5-3.357 7.5-7.5s-3.357-7.5-7.5-7.5zm-173.279 0c-4.143 0-7.5 3.357-7.5 7.5s3.357 7.5 7.5 7.5h10.082c4.143 0 7.5-3.357 7.5-7.5s-3.357-7.5-7.5-7.5zm124.574 239.569c-13.32 0-24.157 10.837-24.157 24.156s10.837 24.156 24.157 24.156c13.319 0 24.156-10.837 24.156-24.156s-10.837-24.156-24.156-24.156zm0 33.312c-5.05 0-9.157-4.107-9.157-9.156s4.107-9.156 9.157-9.156c5.049 0 9.156 4.107 9.156 9.156s-4.107 9.156-9.156 9.156zm-273.851-9.156c0 13.319 10.837 24.156 24.157 24.156s24.156-10.837 24.156-24.156-10.836-24.156-24.156-24.156-24.157 10.836-24.157 24.156zm33.313 0c0 5.049-4.107 9.156-9.156 9.156s-9.157-4.107-9.157-9.156 4.108-9.156 9.157-9.156 9.156 4.107 9.156 9.156zm41.764-115.112c8.467-8.241 9.443-22.576-.175-31.936l-31.174-30.345c-11.246-10.942-29.299-10.7-40.244.544l-5.838 5.998a7.5 7.5 0 00.143 10.605l30.05 29.25-30.05 29.249a7.5 7.5 0 00-.143 10.605l5.838 5.998c10.981 11.281 28.995 11.495 40.244.543zm-60.844 19.507l-.607-.623 30.197-29.393a7.5 7.5 0 000-10.748L158.05 267.38l.607-.623c5.178-5.319 13.715-5.434 19.033-.258l31.174 30.345c3.327 3.238 2.882 7.802.175 10.438l-31.349 30.513c-5.293 5.151-13.813 5.106-19.033-.257zm219.224-160.62c0 4.143 3.357 7.5 7.5 7.5h25.506c4.143 0 7.5-3.357 7.5-7.5s-3.357-7.5-7.5-7.5h-18.006v-46.706c0-4.143-3.357-7.5-7.5-7.5s-7.5 3.357-7.5 7.5zm-249.76-64.098h129.141c4.143 0 7.5-3.357 7.5-7.5s-3.357-7.5-7.5-7.5H128.121c-4.142 0-7.5 3.357-7.5 7.5s3.358 7.5 7.5 7.5zm-31.304 38.747h134.052c4.142 0 7.5-3.357 7.5-7.5s-3.358-7.5-7.5-7.5H96.817c-4.142 0-7.5 3.357-7.5 7.5s3.358 7.5 7.5 7.5zm76.691 19.554c-4.142 0-7.5 3.357-7.5 7.5s3.358 7.5 7.5 7.5h66.705c4.142 0 7.5-3.357 7.5-7.5s-3.358-7.5-7.5-7.5zm-63.233 0c-4.142 0-7.5 3.357-7.5 7.5s3.358 7.5 7.5 7.5h33.292c4.142 0 7.5-3.357 7.5-7.5s-3.358-7.5-7.5-7.5zM7.5 289.406h27.43c4.142 0 7.5-3.357 7.5-7.5s-3.358-7.5-7.5-7.5H7.5c-4.142 0-7.5 3.357-7.5 7.5s3.358 7.5 7.5 7.5zm20 66.064h-20c-4.142 0-7.5 3.357-7.5 7.5s3.358 7.5 7.5 7.5h20c4.142 0 7.5-3.357 7.5-7.5s-3.358-7.5-7.5-7.5zm88.233-63.511H88.985c-4.142 0-7.5 3.357-7.5 7.5s3.358 7.5 7.5 7.5h26.748c4.142 0 7.5-3.357 7.5-7.5s-3.358-7.5-7.5-7.5z"></path>
    <path d="M456.009 282.004C490.759 258.593 512 219.141 512 176.917c0-20.068-4.565-39.271-13.57-57.072a7.5 7.5 0 00-13.385 6.769C492.977 142.298 497 159.223 497 176.917c0 37.974-19.494 73.403-51.238 93.873l-43.665-47.781a26.898 26.898 0 00-19.814-8.735H280.177c-4.256-11.968-6.415-24.511-6.415-37.357 0-61.547 50.072-111.618 111.619-111.618 31.926 0 62.391 13.724 83.583 37.653a7.499 7.499 0 0010.587.642 7.499 7.499 0 00.642-10.587 126.717 126.717 0 00-38.838-29.635V37.971c0-9.23-7.509-16.739-16.739-16.739h-78.469c-9.23 0-16.739 7.509-16.739 16.739v25.394c-41.819 20.698-70.646 63.818-70.646 113.552 0 12.784 1.892 25.304 5.617 37.357H73.128c-9.567 0-17.426 7.396-18.193 16.77H27.5c-4.142 0-7.5 3.357-7.5 7.5s3.358 7.5 7.5 7.5h27.359v72.492H7.5c-4.142 0-7.5 3.357-7.5 7.5s3.358 7.5 7.5 7.5h47.359v21.937a7.498 7.498 0 000 14.992v53.052c0 7.874 6.406 14.279 14.279 14.279h20.179v5.221h-23.4c-4.142 0-7.5 3.357-7.5 7.5s3.358 7.5 7.5 7.5h30.9a7.5 7.5 0 007.5-7.5v-12.721h6.843c2.38 29.604 27.215 52.97 57.421 52.97a57.637 57.637 0 0028.455-7.521 7.5 7.5 0 00-7.419-13.038 42.599 42.599 0 01-21.036 5.559c-23.503 0-42.625-19.121-42.625-42.625s19.122-42.625 42.625-42.625 42.625 19.121 42.625 42.625c0 6.408-1.389 12.571-4.129 18.318a7.5 7.5 0 1013.54 6.455A56.962 56.962 0 00226 437.796h134.854c2.38 29.604 27.215 52.97 57.421 52.97s55.04-23.366 57.421-52.97h15.439c11.505 0 20.865-9.36 20.865-20.865v-63.27a26.71 26.71 0 00-7.01-18.062zM344.408 37.971c0-.959.78-1.739 1.739-1.739h78.469c.959 0 1.739.78 1.739 1.739v19.166a126.436 126.436 0 00-40.974-6.837c-14.333 0-28.116 2.398-40.974 6.807V37.971zm46.617 195.158l78.05 85.407h-55.947c-4.143 0-7.5 3.357-7.5 7.5s3.357 7.5 7.5 7.5h69.655l11.135 12.185c4.54 4.968 2.632 10.359 3.082 16.08h-5.782c-4.143 0-7.5 3.357-7.5 7.5s3.357 7.5 7.5 7.5H497v11.098h-43.101c-9.812-7.743-22.183-12.381-35.623-12.381s-25.811 4.638-35.623 12.381h-81.717V229.275h32.347v89.167c0 8.323 6.771 15.095 15.094 15.095h34.767c4.143 0 7.5-3.357 7.5-7.5s-3.357-7.5-7.5-7.5h-34.767a.095.095 0 01-.094-.095v-89.167h34.002a11.87 11.87 0 018.74 3.854zm-29.427 189.669h-60.664v-19.899h68.318a57.24 57.24 0 00-7.654 19.899zm-143.995-19.899h68.331v19.899h-60.677a57.24 57.24 0 00-7.654-19.899zm-147.744 0h49.698a57.24 57.24 0 00-7.654 19.899H69.859zm63.098-15H69.859V370.47h32.5c4.142 0 7.5-3.357 7.5-7.5s-3.358-7.5-7.5-7.5h-32.5v-21.934h32.5c4.142 0 7.5-3.357 7.5-7.5s-3.358-7.5-7.5-7.5h-32.5v-85.992a3.273 3.273 0 013.269-3.27h212.806v158.624h-81.73c-9.812-7.743-22.183-12.381-35.623-12.381s-25.811 4.639-35.624 12.382zm285.318 87.869c-23.504 0-42.625-19.121-42.625-42.625s19.121-42.625 42.625-42.625 42.625 19.121 42.625 42.625-19.121 42.625-42.625 42.625zm72.859-52.97h-16.183a57.24 57.24 0 00-7.654-19.899H497v14.034a5.872 5.872 0 01-5.866 5.865z"></path>
  </symbol>
  <symbol xmlns="http://www.w3.org/2000/svg" viewBox="0 0 489 489" id="tick">
    <path d="M0 437.825v-345.6c0-13.5 10.9-24.4 24.4-24.4h306.4l-48.7 48.7H48.7v296.9h296.9v-126.1l48.7-48.7v199.2c0 13.4-10.9 24.4-24.4 24.4H24.4c-13.5 0-24.4-10.9-24.4-24.4zm212.1-187l-52-52c-14.6-14.6-38.3-14.6-52.9 0-7.1 7.1-11 16.5-11 26.5s3.9 19.4 11 26.4l78.4 78.4c14.6 14.6 38.3 14.6 52.9 0L478 90.625c7.1-7.1 11-16.5 11-26.4 0-10-3.9-19.4-11-26.5-14.6-14.6-38.3-14.6-52.9 0l-213 213.1z"></path>
  </symbol>
  <symbol xmlns="http://www.w3.org/2000/svg" viewBox="0 0 511 512" id="tools">
    <path d="M347.34 155.148c-5.52 0-10 4.47-10 9.997 0 5.523 4.48 10 10 10 5.531 0 10-4.477 10-10a9.988 9.988 0 00-10-9.997zM165.645 336.84c-5.532 0-10 4.48-10 10a9.99 9.99 0 0010 10c5.52 0 10-4.469 10-10 0-5.52-4.48-10-10-10zm0 0"></path>
    <path d="M500.059 61.52a9.992 9.992 0 00-9.36 2.695L449.242 106h-19.875l-21.879-22.668V63.18l40.864-41.473a9.993 9.993 0 002.601-9.336 9.994 9.994 0 00-6.531-7.156C434.156 1.754 423.414 0 412.488 0c-32.57 0-62.16 15.188-81.183 41.668-17.805 24.789-23.293 55.168-15.43 84.242l-73.66 73.66-122.719-123V52.43a9.998 9.998 0 00-4.855-8.575L43.934 1.425A9.992 9.992 0 0031.719 2.93L3.438 31.207a10.01 10.01 0 00-1.504 12.219l42.421 70.707a10 10 0 008.57 4.855l24.134.008 122.73 123-73.379 73.379c-29.074-7.86-59.469-2.363-84.27 15.453C15.677 349.84.5 379.422.5 411.992c0 10.922 1.754 21.668 5.215 31.93a10 10 0 0016.574 3.852l41.453-41.782h19.985l22.77 22.77v19.984L64.714 490.2a10 10 0 003.851 16.574c10.262 3.461 21.008 5.215 31.93 5.215 32.57 0 62.149-15.18 81.164-41.644 17.817-24.801 23.313-55.192 15.453-84.266l58.934-58.933 13.5 14.664-6.195 6.191c-3.907 3.906-3.907 10.238 0 14.145 3.906 3.902 10.234 3.902 14.144 0l5.61-5.61L409.77 494.121c.093.102.19.2.289.297 23.437 23.437 61.41 23.445 84.859-.004 23.383-23.394 23.383-61.46 0-84.855a9.728 9.728 0 00-.313-.297l-137.8-126.422 5.547-5.547c3.906-3.902 3.906-10.234 0-14.14s-10.235-3.907-14.145 0l-6.152 6.156-14.692-13.485 59.219-59.219a100.198 100.198 0 0025.906 3.391c55.14 0 99.996-44.86 99.996-99.996 0-10.926-1.754-21.668-5.214-31.934a9.99 9.99 0 00-7.211-6.546zM88.285 101.934c-1.875-1.88-4.418-2.836-7.074-2.836l-22.617-.008-35.492-59.258L40.34 22.594l59.156 35.5V80.71a9.997 9.997 0 002.922 7.062l125.656 125.942-14.144 14.14zm254.363 195.062l138.27 126.848c15.445 15.61 15.398 40.883-.145 56.433-15.578 15.578-40.796 15.625-56.437.137L297.258 342.38zm-14.75-13.535L283.7 327.652l-13.5-14.664 43.008-43.011zm84.59-103.465a79.917 79.917 0 01-25.558-4.168 10.017 10.017 0 00-10.262 2.406c-50.133 50.133-158.156 158.153-197.934 197.934a9.998 9.998 0 00-2.406 10.266c8.313 24.683 4.336 51.011-10.914 72.242-15.207 21.168-38.871 33.312-64.918 33.312-2.926 0-5.836-.16-8.719-.468l31.762-31.516a9.997 9.997 0 002.957-7.098v-28.289a10 10 0 00-2.93-7.07l-28.628-28.629a10 10 0 00-7.07-2.93h-28.29a10.012 10.012 0 00-7.101 2.957l-31.512 31.762a80.897 80.897 0 01-.469-8.719c0-26.05 12.14-49.71 33.313-64.918 21.226-15.25 47.558-19.23 72.246-10.914a9.993 9.993 0 0010.261-2.406c.551-.547 197.793-197.793 197.934-197.934a9.999 9.999 0 002.406-10.261c-8.316-24.684-4.347-51.004 10.89-72.22C362.767 32.149 386.435 20 412.485 20c3.016 0 6.012.168 8.98.496l-31.1 31.566a9.993 9.993 0 00-2.876 7.016v28.29a9.988 9.988 0 002.805 6.944l27.629 28.63a9.992 9.992 0 007.195 3.054h28.29a9.994 9.994 0 007.097-2.957l31.512-31.758a81.03 81.03 0 01.468 8.719c0 44.11-35.886 79.996-79.996 79.996zm0 0"></path>
    <path d="M311.988 186.355L186.852 311.492c-3.903 3.903-3.903 10.235 0 14.14 3.906 3.907 10.238 3.907 14.144 0l125.137-125.136c3.906-3.902 3.906-10.234 0-14.14s-10.238-3.907-14.145 0zM438.355 452c3.907 3.895 10.239 3.895 14.145-.023 3.898-3.91 3.887-10.243-.023-14.141l-90.137-89.848c-3.91-3.898-10.246-3.886-14.14.024a9.995 9.995 0 00.019 14.14zm0 0"></path>
  </symbol>
  <symbol xmlns="http://www.w3.org/2000/svg" viewBox="0 0 480 480" id="ac">
    <path d="M434.872 8.049H45.128C20.215 8.075.026 28.264 0 53.177v85.744c.026 24.913 20.215 45.102 45.128 45.128h389.744c24.913-.026 45.102-20.215 45.128-45.128V53.177c-.026-24.913-20.215-45.102-45.128-45.128zM464 138.921c-.018 16.08-13.048 29.11-29.128 29.128H45.128c-16.08-.018-29.11-13.048-29.128-29.128V53.177c.018-16.08 13.048-29.11 29.128-29.128h389.744c16.08.018 29.11 13.048 29.128 29.128v85.744zM87.28 198.489a8 8 0 00-8 8v34.296a44.113 44.113 0 01-13.008 31.4c-10.63 10.152-27.362 10.152-37.992 0-5.697-5.725-5.674-14.984.05-20.681a14.627 14.627 0 019.998-4.255A14.848 14.848 0 0149 251.561l.656.648a8 8 0 0011.311-.25 8 8 0 00-.063-11.126l-.624-.616a30.32 30.32 0 00-21.6-8.976H38c-16.914.35-30.342 14.345-29.992 31.259a30.636 30.636 0 008.96 21.021c16.739 16.737 43.877 16.737 60.616 0a60 60 0 0017.696-42.712v-34.32a8 8 0 00-8-8zm56.72 9.56a8 8 0 00-8 8v26.744a100.585 100.585 0 01-29.656 71.6 8 8 0 00-.196 11.312 8 8 0 0011.508 0A116.472 116.472 0 00152 242.793v-26.744a8 8 0 00-8-8zm56 40a8 8 0 00-8 8v80a8 8 0 0016 0v-80a8 8 0 00-8-8zm0-48a8 8 0 00-8 8v16a8 8 0 0016 0v-16a8 8 0 00-8-8zm262.943 40.128A30.633 30.633 0 00442 231.249a30.761 30.761 0 00-22.248 8.936l-.656.648a8 8 0 1011.061 11.561c.063-.061.126-.122.187-.185l.688-.68a14.873 14.873 0 0110.64-4.28c8.075.158 14.493 6.833 14.335 14.908a14.624 14.624 0 01-4.286 10.06c-10.63 10.152-27.362 10.152-37.992 0a44.113 44.113 0 01-13.008-31.4v-34.328a8 8 0 00-16 0v34.296a60.003 60.003 0 0017.68 42.712c16.739 16.737 43.877 16.737 60.616 0 11.941-11.983 11.909-31.378-.074-43.32zm-89.287 74.216a100.585 100.585 0 01-29.656-71.6v-26.744a8 8 0 00-16 0v26.744a116.472 116.472 0 0034.344 82.912 8 8 0 0011.312-.196 8 8 0 000-11.116zM280 248.049a8 8 0 00-8 8v80a8 8 0 0016 0v-80a8 8 0 00-8-8zm0-48a8 8 0 00-8 8v16a8 8 0 0016 0v-16a8 8 0 00-8-8z"></path>
    <path d="M432 136.049H48a8 8 0 000 16h384a8 8 0 000-16zm0-32H48a8 8 0 000 16h384a8 8 0 000-16zm-8-64h-32c-13.255 0-24 10.745-24 24s10.745 24 24 24h32c13.255 0 24-10.745 24-24s-10.745-24-24-24zm0 32h-32a8 8 0 010-16h32a8 8 0 010 16zm-88-16h-16a8 8 0 000 16h16a8 8 0 000-16zm-48 0h-16a8 8 0 000 16h16a8 8 0 000-16zm139.312 360l10.344-10.344a8 8 0 000-11.312 8 8 0 00-11.312 0l-13.656 13.656h-6.16A23.999 23.999 0 00392 393.521v-6.16l13.656-13.656a8 8 0 00-.196-11.312 8 8 0 00-11.116 0L384 372.737l-10.344-10.344a8 8 0 00-11.312.196 8 8 0 000 11.116L376 387.361v6.16a24.001 24.001 0 00-14.528 14.528h-6.16l-13.656-13.656a8 8 0 00-11.312.196 8 8 0 000 11.116l10.344 10.344-10.344 10.344a8 8 0 00-.196 11.312 8 8 0 0011.508 0l13.656-13.656h6.16A24.001 24.001 0 00376 438.577v6.16l-13.656 13.656a8 8 0 00.196 11.312 8 8 0 0011.116 0L384 459.361l10.344 10.344a8 8 0 0011.312-.196 8 8 0 000-11.116L392 444.737v-6.16a23.999 23.999 0 0014.528-14.528h6.16l13.656 13.656a8 8 0 0011.312-.196 8 8 0 000-11.116l-10.344-10.344zm-43.312 8a8 8 0 110-16 8 8 0 010 16zm-186.344-13.656l-10.344-10.344 10.344-10.344a8 8 0 00-11.312-11.312l-13.656 13.656h-6.16A23.999 23.999 0 00152 377.521v-6.16l13.656-13.656a8 8 0 00-11.312-11.312L144 356.737l-10.344-10.344a8 8 0 00-11.312 11.312L136 371.361v6.16a24.001 24.001 0 00-14.528 14.528h-6.16l-13.656-13.656a8 8 0 00-11.312.196 8 8 0 000 11.116l10.344 10.344-10.344 10.344a8 8 0 00-.196 11.312 8 8 0 0011.508 0l13.656-13.656h6.16A24.001 24.001 0 00136 422.577v6.16l-13.656 13.656a8 8 0 0011.312 11.312L144 443.361l10.344 10.344a8 8 0 0011.312-11.312L152 428.737v-6.16a23.999 23.999 0 0014.528-14.528h6.16l13.656 13.656a8 8 0 0011.312-11.312zM144 408.049a8 8 0 110-16 8 8 0 010 16z"></path>
  </symbol>
  <symbol version="1.0" xmlns="http://www.w3.org/2000/svg" viewBox="0 0 512 512" id="downarrow">
    <path d="M24.5 111.3c-9 3-17.1 10.2-21.6 19.2C.8 134.8.5 136.9.5 146c0 9.6.2 11 2.8 16 2.4 4.5 24.2 26.8 116.5 119.2 94.4 94.5 114.7 114.3 119.7 117 5.7 3.1 6.5 3.3 16.5 3.3s10.8-.2 16.5-3.3c5.1-2.7 25.2-22.4 120.1-117.5 90.5-90.6 114.5-115.2 116.5-119.2 2.1-4.3 2.4-6.4 2.4-15.5 0-9.6-.3-11-2.9-16.2-3.5-6.9-9.3-12.7-16.6-16.5-5-2.5-6.5-2.8-15.5-2.8-17.5 0-7.5-8.7-120.7 104.4L256 314.5l-99.7-99.6C44.2 103.1 53.1 110.8 37 110.3c-5-.1-10.1.3-12.5 1z"></path>
  </symbol>
  <symbol xmlns="http://www.w3.org/2000/svg" viewBox="0 0 97.75 97.75" id="facebook">
    <path d="M48.875 0C21.882 0 0 21.882 0 48.875S21.882 97.75 48.875 97.75 97.75 75.868 97.75 48.875 75.868 0 48.875 0zm18.646 24.89l-6.76.003c-5.301 0-6.326 2.519-6.326 6.215v8.15h12.641l-.006 12.765H54.436v32.758H41.251V52.023H30.229V39.258h11.022v-9.414c0-10.925 6.675-16.875 16.42-16.875l9.851.015V24.89h-.001z"></path>
  </symbol>
  <symbol xmlns="http://www.w3.org/2000/svg" viewBox="0 0 512 512" id="heater">
    <path d="M203 104h16c0-3.1.986-4.287 3.146-6.879C225.038 93.649 229 88.9 229 80s-3.962-13.65-6.854-17.122C219.986 60.285 219 59.1 219 56s.985-4.286 3.146-6.877C225.038 45.65 229 40.9 229 32h-16c0 3.1-.985 4.286-3.146 6.877C206.962 42.348 203 47.1 203 56s3.962 13.65 6.854 17.122C212.014 75.712 213 76.9 213 80s-.986 4.287-3.146 6.879C206.962 90.35 203 95.1 203 104zm165 0h16c0-3.1.986-4.287 3.146-6.879C390.038 93.649 394 88.9 394 80s-3.962-13.65-6.854-17.122C384.986 60.285 384 59.1 384 56s.985-4.286 3.146-6.877C390.038 45.65 394 40.9 394 32h-16c0 3.1-.985 4.286-3.146 6.877C371.962 42.348 368 47.1 368 56s3.962 13.65 6.854 17.122C377.014 75.712 378 76.9 378 80s-.986 4.287-3.146 6.879C371.962 90.35 368 95.1 368 104zM120 88h16c0-3.1.986-4.287 3.146-6.879C142.038 77.649 146 72.9 146 64s-3.962-13.65-6.854-17.122C136.986 44.285 136 43.1 136 40s.985-4.286 3.146-6.877C142.038 29.65 146 24.9 146 16h-16c0 3.1-.985 4.286-3.146 6.877C123.962 26.348 120 31.1 120 40s3.962 13.65 6.854 17.122C129.014 59.712 130 60.9 130 64s-.986 4.287-3.146 6.879C123.962 74.35 120 79.1 120 88zm165 0h16c0-3.1.986-4.287 3.146-6.879C307.038 77.649 311 72.9 311 64s-3.962-13.65-6.854-17.122C301.986 44.285 301 43.1 301 40s.985-4.286 3.146-6.877C307.038 29.65 311 24.9 311 16h-16c0 3.1-.985 4.286-3.146 6.877C288.962 26.348 285 31.1 285 40s3.962 13.65 6.854 17.122C294.014 59.712 295 60.9 295 64s-.986 4.287-3.146 6.879C288.962 74.35 285 79.1 285 88zm193 32h-6v-16h-16v16h-16v-16h-16v16H80v16h398a2 2 0 012 2v308a2 2 0 01-2 2H144v16h273.754l6.485 25.94A8 8 0 00432 496h32a8 8 0 007.761-6.06l6.485-25.94A18.021 18.021 0 00496 446V138a18.021 18.021 0 00-18-18zm-20.246 360h-19.508l-4-16h27.508zM32 446V138a2 2 0 012-2h30v-16H34a18.021 18.021 0 00-18 18v308a18.021 18.021 0 0017.754 18l6.485 25.942A8 8 0 0048 496h32a8 8 0 007.761-6.06L94.246 464H128v-16H34a2 2 0 01-2-2zm45.754 18l-4 16H54.246l-4-16z"></path>
    <path d="M208 416h96v16h-96zm256-256a8 8 0 00-8-8H56a8 8 0 00-8 8v232a8 8 0 008 8h344v-16H64V200h16a8.009 8.009 0 018 8v136a24 24 0 0048 0V208a8 8 0 0116 0v136a24 24 0 0048 0V208a8 8 0 0116 0v136a24 24 0 0048 0V208a8 8 0 0116 0v136a24 24 0 0048 0V208a8 8 0 0116 0v136a24 24 0 0048 0V208a8 8 0 0116 0v132a28.032 28.032 0 0028 28h12v16h-32v16h40a8 8 0 008-8zm-16 192h-12a12.013 12.013 0 01-12-12V208a24 24 0 00-48 0v136a8 8 0 01-16 0V208a24 24 0 00-48 0v136a8 8 0 01-16 0V208a24 24 0 00-48 0v136a8 8 0 01-16 0V208a24 24 0 00-48 0v136a8 8 0 01-16 0V208a24 24 0 00-48 0v136a8 8 0 01-16 0V208a24.027 24.027 0 00-24-24H64v-16h384zm0 64h16v16h-16zm-32 0h16v16h-16zm-368 0h16v16H48zm32 0h16v16H80z"></path>
  </symbol>
</svg>